# xmcd
#
# Track frame offsets: 
#        150
#        38489
#        58934
#        89448
#        108329
#        138273
#        156805
#        185933
#
# Disc length: 2847 seconds
#
# Revision: 0
# Processed by: cddbd v1.5.2PL0 Copyright (c) Steve Scherf et al.
# Submitted via: ExactAudioCopy v0.99pb4
#
DISCID=6a0b1d08
DTITLE=The Masqueraders - Everybody Wanna Live On
DYEAR=1975
DGENRE=Soul
TTITLE0=Everybody Wanna Live On
TTITLE1=Please Don't Try
TTITLE2=[Call Me] The Traveling Man
TTITLE3=Listen
TTITLE4=Baby It's You
TTITLE5=Sweet Sweetning
TTITLE6=Honest And True
TTITLE7=Your Sweet Love Is A Blessing
EXTD=
EXTT0=
EXTT1=
EXTT2=
EXTT3=
EXTT4=
EXTT5=
EXTT6=
EXTT7=
PLAYORDER=
